<svg width="39" height="39" viewBox="0 0 39 39" fill="none" xmlns="http://www.w3.org/2000/svg">
<rect width="39" height="39" fill="white"/>
<path fill-rule="evenodd" clip-rule="evenodd" d="M35.3007 18.9214C35.3007 17.6823 35.1895 16.4908 34.983 15.347H18.525V22.1066H27.9295C27.5244 24.2909 26.2933 26.1416 24.4425 27.3807V31.7653H30.09C33.3944 28.7231 35.3007 24.2432 35.3007 18.9214Z" fill="#4285F4"/>
<path fill-rule="evenodd" clip-rule="evenodd" d="M18.5246 35.9987C23.2428 35.9987 27.1984 34.4339 30.0897 31.7651L24.4422 27.3805C22.8774 28.429 20.8758 29.0486 18.5246 29.0486C13.9733 29.0486 10.1209 25.9746 8.74674 21.8442H2.9086V26.3717C5.78398 32.0828 11.6936 35.9987 18.5246 35.9987Z" fill="#34A853"/>
<path fill-rule="evenodd" clip-rule="evenodd" d="M8.74686 21.8446C8.39737 20.7962 8.19879 19.6762 8.19879 18.5244C8.19879 17.3727 8.39737 16.2527 8.74686 15.2042V10.6767H2.90872C1.72521 13.0358 1.05005 15.7047 1.05005 18.5244C1.05005 21.3442 1.72521 24.0131 2.90872 26.3722L8.74686 21.8446Z" fill="#FBBC05"/>
<path fill-rule="evenodd" clip-rule="evenodd" d="M18.5246 7.99967C21.0902 7.99967 23.3937 8.88135 25.2047 10.6129L30.2168 5.60087C27.1905 2.78108 23.2349 1.0495 18.5246 1.0495C11.6936 1.0495 5.78398 4.96542 2.9086 10.6765L8.74674 15.204C10.1209 11.0736 13.9733 7.99967 18.5246 7.99967Z" fill="#EA4335"/>
</svg>
