<svg width="194" height="58" viewBox="0 0 194 58" fill="none" xmlns="http://www.w3.org/2000/svg">
<path d="M0.816 57C0.645334 57 0.56 56.8933 0.56 56.68L0.688 12.712C0.688 12.5413 0.773334 12.456 0.944 12.456H8.752C8.92267 12.456 9.072 12.5413 9.2 12.712L15.024 21.16L20.848 12.712C20.976 12.5413 21.1253 12.456 21.296 12.456H29.168C29.3387 12.456 29.424 12.5413 29.424 12.712L29.552 56.68C29.552 56.8933 29.4667 57 29.296 57H22.064C21.8933 57 21.808 56.8933 21.808 56.68L21.744 24.04L15.024 33.768L8.368 24.04L8.304 56.68C8.304 56.8933 8.21867 57 8.048 57H0.816ZM35.191 57C35.0203 57 34.935 56.8933 34.935 56.68L34.999 12.712C34.999 12.5413 35.0843 12.456 35.255 12.456H55.799C55.9697 12.456 56.055 12.5627 56.055 12.776V19.944C56.055 20.1147 55.9697 20.2 55.799 20.2H42.679V30.184H55.799C55.9697 30.184 56.055 30.2693 56.055 30.44L56.119 37.672C56.119 37.8427 56.0337 37.928 55.863 37.928H42.679V49.128H55.863C56.0337 49.128 56.119 49.2347 56.119 49.448V56.744C56.119 56.9147 56.0337 57 55.863 57H35.191ZM62.386 57C62.0447 57 61.874 56.8507 61.874 56.552L61.81 12.968C61.81 12.6267 61.9807 12.456 62.322 12.456H68.082L78.898 37.672L78.578 12.968C78.578 12.6267 78.77 12.456 79.154 12.456H85.49C85.746 12.456 85.874 12.6267 85.874 12.968L85.938 56.616C85.938 56.872 85.8313 57 85.618 57H79.986L68.914 33.448L69.362 56.488C69.362 56.8293 69.17 57 68.786 57H62.386ZM97.8975 57C97.7268 57 97.6415 56.8933 97.6415 56.68V20.2H89.3215C89.1082 20.2 89.0015 20.0933 89.0015 19.88L89.0655 12.712C89.0655 12.5413 89.1508 12.456 89.3215 12.456H113.642C113.855 12.456 113.962 12.5413 113.962 12.712V19.88C113.962 20.0933 113.876 20.2 113.706 20.2H105.322L105.385 56.68C105.385 56.8933 105.3 57 105.13 57H97.8975ZM117.379 57C117.208 57 117.123 56.8933 117.123 56.68L117.187 12.712C117.187 12.5413 117.272 12.456 117.443 12.456H137.987C138.157 12.456 138.243 12.5627 138.243 12.776V19.944C138.243 20.1147 138.157 20.2 137.987 20.2H124.867V30.184H137.987C138.157 30.184 138.243 30.2693 138.243 30.44L138.307 37.672C138.307 37.8427 138.221 37.928 138.051 37.928H124.867V49.128H138.051C138.221 49.128 138.307 49.2347 138.307 49.448V56.744C138.307 56.9147 138.221 57 138.051 57H117.379ZM154.503 57.64C152.199 57.64 150.087 57.064 148.167 55.912C146.289 54.7173 144.775 53.16 143.623 51.24C142.513 49.2773 141.959 47.1227 141.959 44.776V41.832C141.959 41.6187 142.065 41.512 142.279 41.512H149.447C149.617 41.512 149.703 41.6187 149.703 41.832V44.776C149.703 46.184 150.172 47.4 151.111 48.424C152.049 49.4053 153.18 49.896 154.503 49.896C155.825 49.896 156.956 49.384 157.895 48.36C158.833 47.336 159.303 46.1413 159.303 44.776C159.303 43.1973 158.279 41.832 156.231 40.68C155.548 40.296 154.481 39.6987 153.031 38.888C151.58 38.0773 150.215 37.3093 148.935 36.584C146.588 35.2187 144.839 33.512 143.687 31.464C142.577 29.3733 142.023 27.0267 142.023 24.424C142.023 22.0347 142.599 19.9013 143.751 18.024C144.903 16.104 146.417 14.5893 148.295 13.48C150.215 12.3707 152.284 11.816 154.503 11.816C156.764 11.816 158.833 12.392 160.711 13.544C162.631 14.6533 164.145 16.168 165.255 18.088C166.407 19.9653 166.983 22.0773 166.983 24.424V29.672C166.983 29.8427 166.897 29.928 166.727 29.928H159.559C159.388 29.928 159.303 29.8427 159.303 29.672L159.239 24.424C159.239 22.9307 158.769 21.7147 157.831 20.776C156.892 19.8373 155.783 19.368 154.503 19.368C153.18 19.368 152.049 19.88 151.111 20.904C150.172 21.8853 149.703 23.0587 149.703 24.424C149.703 25.832 150.001 27.0053 150.599 27.944C151.196 28.8827 152.284 29.7787 153.863 30.632C154.076 30.76 154.481 30.9947 155.079 31.336C155.719 31.6347 156.401 31.9973 157.127 32.424C157.852 32.808 158.492 33.1493 159.047 33.448C159.644 33.7467 160.007 33.9387 160.135 34.024C162.268 35.2187 163.953 36.6907 165.191 38.44C166.428 40.1467 167.047 42.2587 167.047 44.776C167.047 47.208 166.471 49.4053 165.319 51.368C164.209 53.288 162.695 54.824 160.775 55.976C158.897 57.0853 156.807 57.64 154.503 57.64ZM168.072 56.68L176.008 12.712C176.05 12.5413 176.157 12.456 176.328 12.456H185.608C185.778 12.456 185.885 12.5413 185.928 12.712L193.544 56.68C193.586 56.8933 193.501 57 193.288 57H186.184C186.013 57 185.906 56.8933 185.864 56.68L185.16 52.008H176.456L175.752 56.68C175.709 56.8933 175.602 57 175.432 57H168.328C168.157 57 168.072 56.8933 168.072 56.68ZM177.736 45.16H183.88L181.256 27.176L180.872 24.808L180.616 27.176L177.736 45.16ZM186.568 8.808C185.373 8.808 184.264 8.59467 183.24 8.168C182.258 7.69866 181.362 7.25066 180.552 6.824C179.741 6.35467 178.973 6.12 178.248 6.12C177.437 6.12 176.818 6.33333 176.392 6.76C175.965 7.144 175.752 7.63467 175.752 8.232C175.752 8.40267 175.666 8.488 175.496 8.488H169.736C169.565 8.488 169.48 8.40267 169.48 8.232C169.48 7.12266 169.8 5.992 170.44 4.84C171.122 3.64533 172.061 2.64266 173.256 1.832C174.493 1.02133 175.965 0.615997 177.672 0.615997C178.909 0.615997 179.997 0.82933 180.936 1.256C181.874 1.64 182.706 2.04533 183.432 2.472C184.2 2.89866 184.861 3.112 185.416 3.112C186.013 3.112 186.525 2.92 186.952 2.536C187.421 2.152 187.656 1.55466 187.656 0.743996C187.656 0.573331 187.741 0.487999 187.912 0.487999H193.672C193.842 0.487999 193.928 0.573331 193.928 0.743996C193.928 2.49333 193.565 3.96533 192.84 5.16C192.157 6.35466 191.24 7.272 190.088 7.912C188.978 8.50933 187.805 8.808 186.568 8.808Z" fill="#F8F7FF"/>
</svg>
