<svg width="550" height="520" viewBox="0 0 550 520" fill="none" xmlns="http://www.w3.org/2000/svg">
<g clip-path="url(#clip0_2_5)">
<path opacity="0.18" d="M202.012 50.366C179.811 71.5033 168.256 101.754 146.763 123.608C107.526 163.489 39.5773 171.353 11.6162 219.849C-2.36868 243.992 -2.9106 274.287 5.49783 300.842C13.9062 327.396 30.6532 350.648 49.6289 371.078C83.4025 407.419 125.392 436.351 171.997 453.329C194.11 461.385 217.623 466.803 241.047 464.968C268.72 462.81 294.644 450.777 321.941 445.744C350.733 440.501 380.599 443.123 409.268 437.146C437.937 431.169 467.349 413.213 473.38 384.569C477.13 366.744 471.178 347.87 475.216 330.14C482.278 299.129 515.894 282.736 534.372 256.837C543.945 243.353 549.332 227.349 549.86 210.822C550.385 193.259 544.782 174.918 531.916 162.955C522.188 153.92 509.339 149.228 497.023 144.274C440.192 121.459 393.491 86.7861 343.836 51.9825C301.217 22.0897 243.809 10.573 202.012 50.366Z" fill="#68E1FD"/>
<path d="M281.062 327.091L290.073 482.304L304.626 483.423L337.797 322.556L351.843 485.476H366.396L392.067 329.511L337.797 298.823L281.062 327.091Z" fill="#25233A"/>
<path d="M471.309 126.195C471.309 126.195 474.088 120.078 472.244 108.963C470.4 97.8484 482.444 82.3035 482.444 82.3035C483.384 82.8212 484.144 83.6126 484.623 84.5724C485.103 85.5323 485.278 86.6152 485.128 87.6774L493.746 65.2468C493.746 65.2468 497.994 63.1934 502.224 75.1295C506.454 87.0657 503.159 97.4989 501.971 103.24C499.986 112.904 491.272 120.017 490.774 124.561C490.272 128.143 489.516 131.685 488.51 135.16L471.309 126.195Z" fill="url(#paint0_linear_2_5)"/>
<path d="M337.534 90.9629C337.534 90.9629 299.076 90.8667 295.807 93.0338C292.538 95.2008 284.033 100.531 278.562 114.276C273.09 128.021 244.727 203.605 244.727 203.605C244.727 203.605 242.463 211.417 250.033 219.255C257.602 227.093 281.577 255.386 281.577 255.386L272.181 326.715C272.181 326.715 331.617 331.197 338.609 313.285C338.609 313.285 360.295 325.596 392.102 329.52L402.59 333.504L403.464 198.773C407.769 203.983 413.369 207.97 419.702 210.333C426.035 212.697 432.878 213.353 439.545 212.238C463.058 208.603 485.425 178.649 495.485 140.752L463.031 123.626C463.031 123.626 450.716 172.349 430.001 163.908C415.553 158.01 415.561 135.824 413.936 120.218C413.506 116.095 411.804 112.207 409.067 109.094C406.33 105.98 402.692 103.794 398.657 102.838L371.168 96.3105L337.534 90.9629Z" fill="white"/>
<path d="M309.084 233.812L304.81 326.558C304.81 326.558 278.177 327.65 272.172 326.715L281.569 255.395L309.084 233.812Z" fill="#68E1FD"/>
<path d="M309.084 233.812L304.81 326.558C304.81 326.558 278.177 327.65 272.172 326.715L281.569 255.395L309.084 233.812Z" fill="url(#paint1_linear_2_5)"/>
<path d="M403.464 198.773L394.759 179.182L383.326 328.192L402.599 333.504L403.464 198.773Z" fill="#68E1FD"/>
<path d="M403.464 198.773L394.759 179.182L383.326 328.192L402.599 333.504L403.464 198.773Z" fill="url(#paint2_linear_2_5)"/>
<path d="M335.716 105.643C335.716 105.643 356.912 120.078 368.721 109.881L337.464 241.965L335.716 105.643Z" fill="#25233A"/>
<path d="M341.057 70.5508C341.057 70.5508 331.224 108.124 338.216 116.294C345.209 124.464 367.06 125.155 368.721 109.881C370.381 94.6066 377.627 74.1859 377.627 74.1859L341.057 70.5508Z" fill="url(#paint3_linear_2_5)"/>
<path opacity="0.19" d="M339.99 79.7345C339.99 79.7345 348.355 100.706 355.566 104.035C362.777 107.364 369.053 104.909 369.962 101.982C370.871 99.0543 374.638 83.352 374.638 83.352L339.99 79.7345Z" fill="url(#paint4_linear_2_5)"/>
<path d="M391.455 49.8941C391.455 73.7402 378.012 93.0687 361.422 93.0687C344.833 93.0687 331.398 73.714 331.398 49.8941C331.398 26.0743 346.153 17.2489 362.733 17.2489C379.314 17.2489 391.455 26.0306 391.455 49.8941Z" fill="url(#paint5_linear_2_5)"/>
<path d="M403.106 36.1929C401.979 42.7027 398.325 48.5223 394.033 53.5466C394.033 53.1185 393.963 52.6728 393.92 52.2534C393.483 47.465 392.731 42.6416 390.66 38.3337C388.396 33.6152 384.323 29.5171 379.209 28.4248C375.801 27.6908 372.138 28.3025 368.616 28.486C365.731 28.6258 362.943 28.486 360.461 27.0704C359.321 26.2543 358.114 25.5381 356.851 24.9296C349.658 22.3082 344.833 35.2055 344.544 40.1425C344.212 45.8397 345.139 51.7816 343.128 57.138C341.38 56.4564 340.742 54.368 340.087 52.5942C339.431 50.8204 338.059 48.8631 336.197 49.1601C335.737 49.2684 335.305 49.4732 334.93 49.7609C334.554 50.0486 334.245 50.4127 334.021 50.8291C332.561 53.1971 332.928 56.2816 333.951 58.8681C334.973 61.4546 336.573 63.7963 337.561 66.4003C338.356 68.5496 338.715 70.8359 338.616 73.1255C338.517 75.4151 337.962 77.6619 336.984 79.7345C332.877 74.1979 329.958 67.8736 328.409 61.1575L324.039 64.9585C324.138 59.4652 324.234 53.969 324.327 48.4698C324.563 35.6948 325.201 21.7839 333.522 12.1022C339.903 4.66611 349.85 1.11847 359.604 0.227193C370.434 -0.751466 381.858 1.37187 390.616 7.82054C399.374 14.2692 404.968 25.4714 403.106 36.1929Z" fill="#3F3D56"/>
<path d="M398.736 36.2453C395.502 47.0718 393.92 52.2534 393.92 52.2534C393.483 47.465 392.731 42.6416 390.66 38.3337C388.396 33.6152 384.323 29.5171 379.209 28.4248C375.801 27.6908 372.138 28.3025 368.616 28.486C368.616 28.486 381.727 21.5742 387.548 19.8266C393.369 18.079 401.97 25.4277 398.736 36.2453Z" fill="#25233A"/>
<path opacity="0.19" d="M339.99 60.3186C339.99 60.3186 337.001 59.104 337.936 56.771C338.872 54.4379 338.033 53.1884 337.062 52.8825C336.092 52.5767 333.251 54.9971 336.188 60.3186C339.125 65.6401 339.99 60.3186 339.99 60.3186Z" fill="url(#paint6_linear_2_5)"/>
<path d="M333.33 86.1045L324.59 89.1366C323.842 89.3969 323.176 89.8486 322.658 90.4465C322.139 91.0445 321.787 91.7678 321.635 92.5445L313.856 132.739L328.89 135.134L321.076 145.916L337.429 233.786L336.25 88.1667C336.243 87.819 336.154 87.4779 335.991 87.1707C335.828 86.8635 335.595 86.5989 335.311 86.3983C335.027 86.1976 334.7 86.0665 334.356 86.0154C334.012 85.9644 333.66 85.9949 333.33 86.1045ZM371.194 96.2756L380.538 99.6834L383.326 140.752H369.962L375.669 152.321L337.464 241.965C337.464 241.965 366.658 127.199 371.194 96.2756Z" fill="#68E1FD"/>
<path d="M333.33 86.1045L324.59 89.1366C323.842 89.3969 323.176 89.8486 322.658 90.4465C322.139 91.0445 321.787 91.7678 321.635 92.5444L313.856 132.739L328.89 135.134L321.076 145.916L337.429 233.786L336.249 88.1667C336.243 87.819 336.154 87.4779 335.991 87.1707C335.828 86.8635 335.595 86.5989 335.311 86.3982C335.027 86.1976 334.7 86.0665 334.356 86.0154C334.012 85.9644 333.66 85.9949 333.33 86.1045Z" fill="url(#paint7_linear_2_5)"/>
<path d="M371.194 96.2756L380.538 99.6834L383.326 140.752H369.962L375.669 152.321L337.464 241.965C337.464 241.965 366.658 127.199 371.194 96.2756Z" fill="url(#paint8_linear_2_5)"/>
<path d="M295.064 136.942L281.612 206.689L309.101 233.812L295.064 136.942Z" fill="#68E1FD"/>
<path d="M295.064 136.942L281.612 206.689L309.101 233.812L303.953 198.283L295.064 136.942Z" fill="url(#paint9_linear_2_5)"/>
<path d="M309.101 233.812L289.147 258.663L281.577 255.386L306.724 231.462L309.101 233.812Z" fill="#25233A"/>
<path d="M306.864 236.591C306.864 236.591 312.895 249.698 313.856 257.256L289.112 258.663L306.864 236.591Z" fill="url(#paint10_linear_2_5)"/>
<path d="M286.472 258.663L325.691 257.256C325.691 257.256 322.859 297.451 322.614 301.908C322.369 306.364 280.056 309.414 280.056 309.414L286.472 258.663ZM400.056 260.114L361.449 257.492C361.449 257.492 357.262 297.408 357.507 301.89C357.751 306.373 396.996 312.087 396.996 312.087L400.056 260.114Z" fill="white"/>
<path d="M286.472 258.663L325.691 257.256C325.691 257.256 322.859 297.451 322.614 301.908C322.37 306.364 280.056 309.414 280.056 309.414L286.472 258.663Z" fill="#68E1FD"/>
<path d="M286.472 258.663L325.691 257.256C325.691 257.256 322.859 297.451 322.614 301.908C322.37 306.364 280.056 309.414 280.056 309.414L286.472 258.663Z" fill="url(#paint11_linear_2_5)"/>
<path d="M400.056 260.114L361.449 257.492C361.449 257.492 357.262 297.407 357.507 301.89C357.751 306.373 396.996 312.087 396.996 312.087L400.056 260.114Z" fill="#68E1FD"/>
<path d="M400.056 260.114L361.449 257.492C361.449 257.492 357.262 297.408 357.507 301.89C357.751 306.373 396.996 312.087 396.996 312.087L400.056 260.114Z" fill="url(#paint12_linear_2_5)"/>
<path d="M465.942 125.146L467.917 121.992L494.532 136.942L495.52 140.743L465.942 125.146Z" fill="#25233A"/>
<path d="M319.179 114.285C318.812 89.7221 338.574 83.352 338.574 83.352M301.453 147.061C299.592 105.398 337.534 103.222 334.108 147.061" stroke="#222A72" stroke-width="3.03" stroke-miterlimit="10" stroke-linecap="round"/>
<path d="M305.588 148.555C305.589 149.332 305.361 150.091 304.93 150.737C304.5 151.384 303.888 151.888 303.171 152.186C302.454 152.484 301.665 152.563 300.903 152.413C300.141 152.263 299.441 151.89 298.891 151.341C298.341 150.793 297.967 150.094 297.815 149.333C297.663 148.571 297.74 147.782 298.036 147.065C298.333 146.347 298.836 145.734 299.482 145.302C300.127 144.871 300.887 144.641 301.663 144.641C302.702 144.641 303.699 145.053 304.435 145.787C305.171 146.52 305.585 147.516 305.588 148.555Z" fill="url(#paint13_linear_2_5)"/>
<path d="M337.534 149.027C337.534 149.803 337.304 150.562 336.873 151.207C336.442 151.852 335.829 152.355 335.112 152.652C334.395 152.949 333.605 153.026 332.844 152.875C332.083 152.724 331.384 152.35 330.835 151.801C330.286 151.253 329.912 150.554 329.761 149.792C329.609 149.031 329.687 148.243 329.984 147.526C330.281 146.809 330.784 146.196 331.43 145.765C332.075 145.334 332.834 145.104 333.61 145.104C334.651 145.104 335.649 145.517 336.385 146.253C337.121 146.989 337.534 147.987 337.534 149.027Z" fill="url(#paint14_linear_2_5)"/>
<path d="M372.811 90.9629C372.811 90.9629 402.302 105.145 385.092 158.123L377.627 173.791" stroke="#222A72" stroke-width="3.03" stroke-miterlimit="10" stroke-linecap="round"/>
<path d="M381.084 183.062C384.071 180.076 384.071 175.235 381.084 172.249C378.098 169.263 373.255 169.263 370.268 172.249C367.282 175.235 367.282 180.076 370.268 183.062C373.255 186.048 378.098 186.048 381.084 183.062Z" fill="url(#paint15_linear_2_5)"/>
<path d="M379.832 180.778C381.935 178.676 381.934 175.268 379.832 173.166C377.729 171.064 374.32 171.064 372.217 173.166C370.115 175.268 370.115 178.676 372.217 180.778C374.32 182.88 377.729 182.88 379.832 180.778Z" fill="url(#paint16_linear_2_5)"/>
<path d="M381.565 177.601C383.668 175.499 383.668 172.091 381.565 169.989C379.463 167.887 376.054 167.887 373.951 169.989C371.848 172.091 371.848 175.499 373.951 177.601C376.054 179.703 379.463 179.703 381.565 177.601Z" fill="url(#paint17_linear_2_5)"/>
<path d="M233.915 297.932H123.897C123.226 297.932 122.561 297.799 121.941 297.542C121.321 297.284 120.758 296.906 120.285 296.43C119.811 295.955 119.437 295.39 119.182 294.769C118.928 294.148 118.798 293.482 118.802 292.811C118.802 291.46 119.339 290.164 120.294 289.209C121.25 288.254 122.546 287.717 123.897 287.717H233.915C235.266 287.717 236.563 288.254 237.518 289.209C238.474 290.164 239.011 291.46 239.011 292.811C239.014 293.482 238.885 294.148 238.63 294.769C238.376 295.39 238.001 295.955 237.528 296.43C237.054 296.906 236.491 297.284 235.871 297.542C235.251 297.799 234.586 297.932 233.915 297.932Z" fill="#68E1FD"/>
<path d="M179.723 292.811C179.725 293.481 179.594 294.144 179.338 294.762C179.082 295.381 178.707 295.943 178.234 296.416C177.76 296.889 177.198 297.265 176.579 297.52C175.96 297.776 175.297 297.907 174.628 297.906H0.541901V287.743H174.645C175.988 287.75 177.275 288.286 178.225 289.235C179.176 290.183 179.714 291.468 179.723 292.811Z" fill="#68E1FD"/>
<path d="M238.993 292.811C238.991 294.162 238.453 295.456 237.498 296.411C236.543 297.366 235.248 297.903 233.898 297.906H174.645C175.997 297.906 177.293 297.369 178.248 296.413C179.204 295.458 179.741 294.162 179.741 292.811C179.741 291.46 179.204 290.164 178.248 289.209C177.293 288.254 175.997 287.717 174.645 287.717H233.915C235.263 287.722 236.555 288.26 237.507 289.215C238.459 290.17 238.993 291.463 238.993 292.811Z" fill="url(#paint18_linear_2_5)"/>
<path d="M179.723 292.811C179.725 293.481 179.594 294.144 179.338 294.762C179.082 295.381 178.707 295.943 178.234 296.416C177.76 296.889 177.198 297.265 176.579 297.52C175.96 297.776 175.297 297.907 174.628 297.906H0.541901V287.743H174.645C175.988 287.75 177.275 288.286 178.225 289.235C179.176 290.183 179.714 291.468 179.723 292.811Z" fill="url(#paint19_linear_2_5)"/>
<path d="M123.897 297.932H232.088V418.98H123.897V297.932Z" fill="#68E1FD"/>
<path d="M123.897 297.932H232.088V418.98H123.897V297.932Z" fill="url(#paint20_linear_2_5)"/>
<path d="M0.550659 297.932H179.741V418.98H0.550659V297.932Z" fill="#68E1FD"/>
<path d="M291.751 489.024L292.127 482.304L304.626 483.423L302.965 493.498C302.965 493.498 296.786 503.013 291.751 489.024Z" fill="url(#paint21_linear_2_5)"/>
<path d="M365.128 494.494L364.656 485.476L351.843 485.354V496.661C351.843 496.661 360.094 508.483 365.128 494.494Z" fill="url(#paint22_linear_2_5)"/>
<path d="M291.751 489.024C291.751 489.024 268.152 500.654 265.372 504.883C263.542 507.973 262.2 511.327 261.395 514.827C261.395 514.827 275.826 515.08 284.785 512.092C293.744 509.104 304.626 505.871 304.626 505.871V490.448C304.626 490.448 304.443 488.648 301.829 490.701C299.216 492.755 296.585 494.677 294.269 493.323C291.952 491.968 293.15 488.928 291.751 489.024ZM365.74 492.536C365.74 492.536 386.394 505.373 388.815 509.785C390.415 513.004 391.512 516.449 392.067 520C392.067 520 377.654 519.205 368.939 515.579C360.225 511.952 349.596 507.933 349.596 507.933L350.715 492.554C350.715 492.554 351.03 490.806 353.486 493C355.942 495.193 360.478 497.823 362.917 496.661C365.356 495.499 364.35 492.335 365.74 492.536Z" fill="#68E1FD"/>
<path d="M291.751 489.024C291.751 489.024 268.152 500.654 265.372 504.883C263.542 507.973 262.2 511.327 261.395 514.827C261.395 514.827 275.826 515.081 284.785 512.092C293.744 509.104 304.626 505.871 304.626 505.871V490.448C304.626 490.448 304.443 488.648 301.829 490.701C299.216 492.755 296.585 494.677 294.269 493.323C291.952 491.968 293.15 488.928 291.751 489.024Z" fill="url(#paint23_linear_2_5)"/>
<path d="M365.74 492.536C365.74 492.536 386.394 505.373 388.815 509.785C390.415 513.004 391.512 516.449 392.067 520C392.067 520 377.654 519.205 368.939 515.579C360.225 511.952 349.596 507.933 349.596 507.933L350.715 492.554C350.715 492.554 351.03 490.806 353.486 492.999C355.942 495.193 360.478 497.823 362.917 496.661C365.356 495.499 364.35 492.335 365.74 492.536Z" fill="url(#paint24_linear_2_5)"/>
<path d="M180.449 287.568V287.735H84.6873C84.6873 287.735 98.6722 241.746 141.221 243.171C142.052 243.171 142.865 243.24 143.651 243.302C183.01 246.176 181.035 283.724 180.449 287.568Z" fill="#68E1FD"/>
<path d="M180.449 287.569H155.975L156.159 285.148C156.159 285.148 163.623 249.322 143.66 243.337C183.01 246.176 181.035 283.724 180.449 287.569Z" fill="#68E1FD"/>
<path d="M180.449 287.568V287.735H84.6873C84.6873 287.735 98.6722 241.746 141.221 243.171C142.052 243.171 142.865 243.24 143.651 243.302C183.01 246.176 181.035 283.724 180.449 287.568Z" fill="url(#paint25_linear_2_5)"/>
<path d="M180.449 287.569H155.975L156.159 285.148C156.159 285.148 163.623 249.322 143.66 243.337C183.01 246.176 181.035 283.724 180.449 287.569Z" fill="url(#paint26_linear_2_5)"/>
</g>
<defs>
<linearGradient id="paint0_linear_2_5" x1="476.78" y1="159.548" x2="494.715" y2="63.0168" gradientUnits="userSpaceOnUse">
<stop stop-color="#ECC4D7"/>
<stop offset="0.42" stop-color="#EFD4D1"/>
<stop offset="1" stop-color="#F2EAC9"/>
</linearGradient>
<linearGradient id="paint1_linear_2_5" x1="272.181" y1="280.456" x2="309.093" y2="280.456" gradientUnits="userSpaceOnUse">
<stop offset="0.01" stop-color="white" stop-opacity="0"/>
<stop offset="0.13" stop-color="white" stop-opacity="0.17"/>
<stop offset="0.37" stop-color="white" stop-opacity="0.46"/>
<stop offset="0.59" stop-color="white" stop-opacity="0.68"/>
<stop offset="0.77" stop-color="white" stop-opacity="0.85"/>
<stop offset="0.91" stop-color="white" stop-opacity="0.95"/>
<stop offset="1" stop-color="white" stop-opacity="0.99"/>
</linearGradient>
<linearGradient id="paint2_linear_2_5" x1="414.862" y1="256.837" x2="378.79" y2="255.744" gradientUnits="userSpaceOnUse">
<stop offset="0.01" stop-color="white" stop-opacity="0"/>
<stop offset="0.13" stop-color="white" stop-opacity="0.17"/>
<stop offset="0.37" stop-color="white" stop-opacity="0.46"/>
<stop offset="0.59" stop-color="white" stop-opacity="0.68"/>
<stop offset="0.77" stop-color="white" stop-opacity="0.85"/>
<stop offset="0.91" stop-color="white" stop-opacity="0.95"/>
<stop offset="1" stop-color="white" stop-opacity="0.99"/>
</linearGradient>
<linearGradient id="paint3_linear_2_5" x1="363.459" y1="99.6223" x2="426.15" y2="147.402" gradientUnits="userSpaceOnUse">
<stop stop-color="#ECC4D7"/>
<stop offset="0.42" stop-color="#EFD4D1"/>
<stop offset="1" stop-color="#F2EAC9"/>
</linearGradient>
<linearGradient id="paint4_linear_2_5" x1="395.275" y1="77.7335" x2="329.165" y2="100.735" gradientUnits="userSpaceOnUse">
<stop stop-color="#183866"/>
<stop offset="1" stop-color="#1A7FC1"/>
</linearGradient>
<linearGradient id="paint5_linear_2_5" x1="331.398" y1="55.1282" x2="391.455" y2="55.1282" gradientUnits="userSpaceOnUse">
<stop stop-color="#ECC4D7"/>
<stop offset="0.42" stop-color="#EFD4D1"/>
<stop offset="1" stop-color="#F2EAC9"/>
</linearGradient>
<linearGradient id="paint6_linear_2_5" x1="341.922" y1="56.3078" x2="333.339" y2="59.2978" gradientUnits="userSpaceOnUse">
<stop stop-color="#183866"/>
<stop offset="1" stop-color="#1A7FC1"/>
</linearGradient>
<linearGradient id="paint7_linear_2_5" x1="297.24" y1="167.377" x2="359.585" y2="155.233" gradientUnits="userSpaceOnUse">
<stop offset="0.01" stop-color="white" stop-opacity="0"/>
<stop offset="0.13" stop-color="white" stop-opacity="0.17"/>
<stop offset="0.37" stop-color="white" stop-opacity="0.46"/>
<stop offset="0.59" stop-color="white" stop-opacity="0.68"/>
<stop offset="0.77" stop-color="white" stop-opacity="0.85"/>
<stop offset="0.91" stop-color="white" stop-opacity="0.95"/>
<stop offset="1" stop-color="white" stop-opacity="0.99"/>
</linearGradient>
<linearGradient id="paint8_linear_2_5" x1="388.413" y1="186.749" x2="333.294" y2="156.887" gradientUnits="userSpaceOnUse">
<stop offset="0.01" stop-color="white" stop-opacity="0"/>
<stop offset="0.13" stop-color="white" stop-opacity="0.17"/>
<stop offset="0.37" stop-color="white" stop-opacity="0.46"/>
<stop offset="0.59" stop-color="white" stop-opacity="0.68"/>
<stop offset="0.77" stop-color="white" stop-opacity="0.85"/>
<stop offset="0.91" stop-color="white" stop-opacity="0.95"/>
<stop offset="1" stop-color="white" stop-opacity="0.99"/>
</linearGradient>
<linearGradient id="paint9_linear_2_5" x1="279.121" y1="187.387" x2="301.75" y2="185.402" gradientUnits="userSpaceOnUse">
<stop offset="0.01" stop-color="white" stop-opacity="0"/>
<stop offset="0.13" stop-color="white" stop-opacity="0.17"/>
<stop offset="0.37" stop-color="white" stop-opacity="0.46"/>
<stop offset="0.59" stop-color="white" stop-opacity="0.68"/>
<stop offset="0.77" stop-color="white" stop-opacity="0.85"/>
<stop offset="0.91" stop-color="white" stop-opacity="0.95"/>
<stop offset="1" stop-color="white" stop-opacity="0.99"/>
</linearGradient>
<linearGradient id="paint10_linear_2_5" x1="299.277" y1="270.014" x2="305.671" y2="235.62" gradientUnits="userSpaceOnUse">
<stop stop-color="#ECC4D7"/>
<stop offset="0.42" stop-color="#EFD4D1"/>
<stop offset="1" stop-color="#F2EAC9"/>
</linearGradient>
<linearGradient id="paint11_linear_2_5" x1="304.513" y1="231.689" x2="302.355" y2="299.496" gradientUnits="userSpaceOnUse">
<stop offset="0.01" stop-color="white" stop-opacity="0"/>
<stop offset="0.13" stop-color="white" stop-opacity="0.17"/>
<stop offset="0.37" stop-color="white" stop-opacity="0.46"/>
<stop offset="0.59" stop-color="white" stop-opacity="0.68"/>
<stop offset="0.77" stop-color="white" stop-opacity="0.85"/>
<stop offset="0.91" stop-color="white" stop-opacity="0.95"/>
<stop offset="1" stop-color="white" stop-opacity="0.99"/>
</linearGradient>
<linearGradient id="paint12_linear_2_5" x1="382.111" y1="219.386" x2="377.062" y2="311.721" gradientUnits="userSpaceOnUse">
<stop offset="0.01" stop-color="white" stop-opacity="0"/>
<stop offset="0.13" stop-color="white" stop-opacity="0.17"/>
<stop offset="0.37" stop-color="white" stop-opacity="0.46"/>
<stop offset="0.59" stop-color="white" stop-opacity="0.68"/>
<stop offset="0.77" stop-color="white" stop-opacity="0.85"/>
<stop offset="0.91" stop-color="white" stop-opacity="0.95"/>
<stop offset="1" stop-color="white" stop-opacity="0.99"/>
</linearGradient>
<linearGradient id="paint13_linear_2_5" x1="297.721" y1="148.555" x2="305.561" y2="148.555" gradientUnits="userSpaceOnUse">
<stop stop-color="#68E1FD"/>
<stop offset="0.2" stop-color="#5DB4CF"/>
<stop offset="0.46" stop-color="#50819B"/>
<stop offset="0.69" stop-color="#475C76"/>
<stop offset="0.87" stop-color="#41455E"/>
<stop offset="0.99" stop-color="#3F3D56"/>
</linearGradient>
<linearGradient id="paint14_linear_2_5" x1="329.694" y1="149.027" x2="337.534" y2="149.027" gradientUnits="userSpaceOnUse">
<stop stop-color="#68E1FD"/>
<stop offset="0.2" stop-color="#5DB4CF"/>
<stop offset="0.46" stop-color="#50819B"/>
<stop offset="0.69" stop-color="#475C76"/>
<stop offset="0.87" stop-color="#41455E"/>
<stop offset="0.99" stop-color="#3F3D56"/>
</linearGradient>
<linearGradient id="paint15_linear_2_5" x1="368.032" y1="177.65" x2="383.336" y2="177.65" gradientUnits="userSpaceOnUse">
<stop stop-color="#68E1FD"/>
<stop offset="0.2" stop-color="#5DB4CF"/>
<stop offset="0.46" stop-color="#50819B"/>
<stop offset="0.69" stop-color="#475C76"/>
<stop offset="0.87" stop-color="#41455E"/>
<stop offset="0.99" stop-color="#3F3D56"/>
</linearGradient>
<linearGradient id="paint16_linear_2_5" x1="373.923" y1="176.971" x2="384.701" y2="176.971" gradientUnits="userSpaceOnUse">
<stop stop-color="#68E1FD"/>
<stop offset="0.2" stop-color="#5DB4CF"/>
<stop offset="0.46" stop-color="#50819B"/>
<stop offset="0.69" stop-color="#475C76"/>
<stop offset="0.87" stop-color="#41455E"/>
<stop offset="0.99" stop-color="#3F3D56"/>
</linearGradient>
<linearGradient id="paint17_linear_2_5" x1="384.028" y1="162.31" x2="369.979" y2="188.055" gradientUnits="userSpaceOnUse">
<stop stop-color="#68E1FD"/>
<stop offset="0.2" stop-color="#5DB4CF"/>
<stop offset="0.46" stop-color="#50819B"/>
<stop offset="0.69" stop-color="#475C76"/>
<stop offset="0.87" stop-color="#41455E"/>
<stop offset="0.99" stop-color="#3F3D56"/>
</linearGradient>
<linearGradient id="paint18_linear_2_5" x1="205.709" y1="283.182" x2="212.034" y2="351.95" gradientUnits="userSpaceOnUse">
<stop stop-opacity="0"/>
<stop offset="0.99"/>
</linearGradient>
<linearGradient id="paint19_linear_2_5" x1="91.1379" y1="259.441" x2="85.4598" y2="436.255" gradientUnits="userSpaceOnUse">
<stop stop-opacity="0"/>
<stop offset="0.99"/>
</linearGradient>
<linearGradient id="paint20_linear_2_5" x1="140.644" y1="358.976" x2="468.582" y2="354.386" gradientUnits="userSpaceOnUse">
<stop stop-opacity="0"/>
<stop offset="0.99"/>
</linearGradient>
<linearGradient id="paint21_linear_2_5" x1="291.751" y1="489.478" x2="304.626" y2="489.478" gradientUnits="userSpaceOnUse">
<stop stop-color="#ECC4D7"/>
<stop offset="0.42" stop-color="#EFD4D1"/>
<stop offset="1" stop-color="#F2EAC9"/>
</linearGradient>
<linearGradient id="paint22_linear_2_5" x1="365.137" y1="493.34" x2="351.843" y2="493.34" gradientUnits="userSpaceOnUse">
<stop stop-color="#ECC4D7"/>
<stop offset="0.42" stop-color="#EFD4D1"/>
<stop offset="1" stop-color="#F2EAC9"/>
</linearGradient>
<linearGradient id="paint23_linear_2_5" x1="261.395" y1="501.93" x2="304.626" y2="501.93" gradientUnits="userSpaceOnUse">
<stop stop-opacity="0"/>
<stop offset="0.99"/>
</linearGradient>
<linearGradient id="paint24_linear_2_5" x1="349.596" y1="505.94" x2="392.067" y2="505.94" gradientUnits="userSpaceOnUse">
<stop stop-opacity="0"/>
<stop offset="0.99"/>
</linearGradient>
<linearGradient id="paint25_linear_2_5" x1="129.631" y1="246.15" x2="138.48" y2="358.443" gradientUnits="userSpaceOnUse">
<stop stop-opacity="0"/>
<stop offset="0.99"/>
</linearGradient>
<linearGradient id="paint26_linear_2_5" x1="192.31" y1="233.681" x2="-4.06573" y2="440.069" gradientUnits="userSpaceOnUse">
<stop stop-opacity="0"/>
<stop offset="0.99"/>
</linearGradient>
<clipPath id="clip0_2_5">
<rect width="550" height="520" fill="white"/>
</clipPath>
</defs>
</svg>
